Coordinates
version=1
nRows=11
nColumns=40
inDegrees=yes

Units are S.I. units (second, meters, Newtons, ...)
If the header above contains a line with 'inDegrees', this indicates whether rotational values are in degrees (yes) or radians (no).

endheader
time	pelvis_tilt	pelvis_list	pelvis_rotation	pelvis_tx	pelvis_ty	pelvis_tz	hip_flexion_r	hip_adduction_r	hip_rotation_r	knee_angle_r	knee_angle_r_beta	ankle_angle_r	subtalar_angle_r	mtp_angle_r	hip_flexion_l	hip_adduction_l	hip_rotation_l	knee_angle_l	knee_angle_l_beta	ankle_angle_l	subtalar_angle_l	mtp_angle_l	lumbar_extension	lumbar_bending	lumbar_rotation	arm_flex_r	arm_add_r	arm_rot_r	elbow_flex_r	pro_sup_r	wrist_flex_r	wrist_dev_r	arm_flex_l	arm_add_l	arm_rot_l	elbow_flex_l	pro_sup_l	wrist_flex_l	wrist_dev_l
      2.30000000	     -6.30013760	    -10.70970284	     -3.65824231	     -0.25161993	      1.06631436	     -1.05002338	     34.19988208	      0.41247366	      1.06959552	    114.12722716	      1.99189588	     -2.87306121	      0.00000000	      0.00000000	     17.54672987	     -6.07416947	     -4.88295532	     23.77899289	      0.41502172	      6.69625990	      0.00000000	      0.00000000	     -6.11942443	      7.40660295	      3.28250822	     88.59033685	    -11.28399579	     49.65926997	     26.64350680	     86.56723227	      0.00000000	      0.00000000	     87.94436496	    -15.79297023	     47.72957399	     27.80495330	     85.73056923	      0.00000000	      0.00000000
      2.30500000	     -6.33354422	    -10.65305463	     -3.65170432	     -0.25183380	      1.06623064	     -1.05007917	     34.17336523	      0.38176949	      1.06179317	    114.11578672	      1.99169621	     -2.88543381	      0.00000000	      0.00000000	     17.60589557	     -6.02082138	     -4.95282403	     23.76916909	      0.41485026	      6.53088307	      0.00000000	      0.00000000	     -6.13402115	      7.33334007	      3.28225188	     88.55786568	    -11.31178433	     49.34649057	     26.78312185	     86.57993889	      0.00000000	      0.00000000	     88.04388048	    -15.81930113	     48.01987301	     27.81845712	     85.68148073	      0.00000000	      0.00000000
      2.31000000	     -6.35460008	    -10.63648579	     -3.61879208	     -0.25201204	      1.06611312	     -1.05017975	     34.11120225	      0.38226632	      1.01529092	    114.11320611	      1.99165117	     -2.79920578	      0.00000000	      0.00000000	     17.68155913	     -6.01045146	     -4.99150642	     23.83585753	      0.41601419	      6.38000706	      0.00000000	      0.00000000	     -6.14988443	      7.32346015	      3.26612814	     88.56175428	    -11.30385118	     49.17298699	     26.78831678	     86.67525920	      0.00000000	      0.00000000	     88.09846569	    -15.78243205	     47.97052002	     27.72607845	     85.72450637	      0.00000000	      0.00000000
      2.31500000	     -6.47748058	    -10.60644925	     -3.58418546	     -0.25228568	      1.06573984	     -1.05030545	     34.18907420	      0.34661724	      0.94401492	    114.14381952	      1.99218547	     -2.70776688	      0.00000000	      0.00000000	     17.96404170	     -5.99209711	     -4.96643649	     24.07543661	      0.42019564	      6.38060484	      0.00000000	      0.00000000	     -6.04799407	      7.30377246	      3.26566526	     88.68196355	    -11.44098141	     50.02627044	     26.86304148	     85.52018468	      0.00000000	      0.00000000	     88.28271373	    -15.74610492	     48.95214667	     27.54890949	     84.22119012	      0.00000000	      0.00000000
      2.32000000	     -6.44081684	    -10.56768573	     -3.55964528	     -0.25247796	      1.06582143	     -1.05038544	     34.07434413	      0.32482420	      0.92769519	    114.11331996	      1.99165315	     -2.86812040	      0.00000000	      0.00000000	     17.90477306	     -5.94876190	     -5.03441891	     23.99424102	      0.41877851	      6.54724391	      0.00000000	      0.00000000	     -6.15180520	      7.26853736	      3.21841461	     88.62671940	    -11.26655746	     49.02635789	     26.79474679	     86.75624383	      0.00000000	      0.00000000	     88.23589807	    -15.80562317	     48.00160776	     27.68627552	     85.63990448	      0.00000000	      0.00000000
      2.32500000	     -6.51991836	    -10.52085792	     -3.54387105	     -0.25268904	      1.06554743	     -1.05048628	     34.10565545	      0.28001109	      0.90089510	    114.13463382	      1.99202515	     -2.89402336	      0.00000000	      0.00000000	     18.06425588	     -5.90724389	     -5.04423304	     24.10322999	      0.42068072	      6.44836521	      0.00000000	      0.00000000	     -6.09314344	      7.23336300	      3.20832857	     88.70551698	    -11.32707501	     49.48281259	     26.83601020	     86.39790593	      0.00000000	      0.00000000	     88.31818824	    -15.82122792	     48.39978523	     27.65246014	     85.11149800	      0.00000000	      0.00000000
      2.33000000	     -6.56714767	    -10.51727217	     -3.52199856	     -0.25287044	      1.06535893	     -1.05053565	     34.07513178	      0.29941121	      0.85570078	    114.13752952	      1.99207569	     -2.80616649	      0.00000000	      0.00000000	     18.19015688	     -5.91485163	     -5.02818356	     24.21535188	      0.42263762	      6.49268610	      0.00000000	      0.00000000	     -6.06869487	      7.24517563	      3.21159228	     88.77861895	    -11.35621651	     49.86054465	     26.84791996	     85.88931295	      0.00000000	      0.00000000	     88.40528002	    -15.79500478	     48.77809907	     27.55916875	     84.42042835	      0.00000000	      0.00000000
      2.33500000	     -6.58171878	    -10.45289063	     -3.48423998	     -0.25306551	      1.06533504	     -1.05065451	     34.01689550	      0.23701329	      0.83363217	    114.11749078	      1.99172595	     -2.86186317	      0.00000000	      0.00000000	     18.22996906	     -5.85464809	     -5.14206276	     24.21029797	      0.42254941	      6.57094129	      0.00000000	      0.00000000	     -6.10059192	      7.17258591	      3.15613111	     88.70306971	    -11.25525447	     48.98032110	     26.80539563	     86.68651276	      0.00000000	      0.00000000	     88.39947011	    -15.81647461	     48.04025404	     27.60571037	     85.66969365	      0.00000000	      0.00000000
      2.34000000	     -6.60889818	    -10.43930296	     -3.45116780	     -0.25322774	      1.06518001	     -1.05075817	     33.96971083	      0.22147328	      0.77542388	    114.11824724	      1.99173915	     -2.90837212	      0.00000000	      0.00000000	     18.32727500	     -5.84643426	     -5.19376300	     24.30077322	      0.42412850	      6.56297741	      0.00000000	      0.00000000	     -6.10582856	      7.16410895	      3.10695641	     88.72997297	    -11.21380018	     48.82716790	     26.85038761	     86.61394340	      0.00000000	      0.00000000	     88.45479194	    -15.85497485	     48.06524993	     27.60700359	     85.60745842	      0.00000000	      0.00000000
      2.34500000	     -6.65735276	    -10.39618255	     -3.41948813	     -0.25342014	      1.06501249	     -1.05087254	     33.94854451	      0.18268176	      0.74545455	    114.09715961	      1.99137110	     -2.94627560	      0.00000000	      0.00000000	     18.42961717	     -5.78705739	     -5.09953705	     24.35134311	      0.42501111	      6.40184444	      0.00000000	      0.00000000	     -6.09108170	      7.12948304	      3.06865395	     88.76675847	    -11.21772297	     48.88403116	     26.87332837	     86.61133806	      0.00000000	      0.00000000	     88.51260081	    -15.88899495	     48.20794009	     27.62116990	     85.64054093	      0.00000000	      0.00000000
      2.35000000	     -6.73848005	    -10.35584359	     -3.39923849	     -0.25379583	      1.06474064	     -1.05094405	     33.97049160	      0.16381906	      0.72697988	    114.12507226	      1.99185827	     -2.74221560	      0.00000000	      0.00000000	     18.62948516	     -5.75938575	     -5.12303722	     24.50827019	      0.42775001	      6.31673099	      0.00000000	      0.00000000	     -6.04821189	      7.09391208	      3.06234417	     88.85853004	    -11.26618985	     49.31599460	     26.88673834	     85.99545470	      0.00000000	      0.00000000	     88.60168488	    -15.86245559	     48.59219027	     27.50399541	     84.81417264	      0.00000000	      0.00000000
